# xmcd
#
# Track frame offsets:
# 182
# 11282
# 22112
# 37917
# 52595
# 68327
# 81420
# 94745
# 107557
# 124980
#
# Disc length: 1886 seconds
#
#
# Revision: 5
# Processed by: cddbd v1.5.1PL0 Copyright (c) Steve Scherf et al.
# Submitted via: FreeRIP 2.91 
#
DISCID=6d075c0a
DTITLE=Alan Jackson - A Lot About Livin And A Little 'Bout Love
DYEAR=1992
DGENRE=Country
TTITLE0=Chattahoochee
TTITLE1=She's Got The Rhytm (And I Got The Blues)
TTITLE2=Tonight I Climbed The Wall
TTITLE3=I Don't Need The Booze
TTITLE4=Who Says You Can't Have It All
TTITLE5=Up To My Ears In Tears
TTITLE6=Tropical Depression
TTITLE7=She Likes Its Too
TTITLE8=If It Ain't One Thing (It's You)
TTITLE9=Mercury Blues
EXTD=
EXTT0=
EXTT1=
EXTT2=
EXTT3=
EXTT4=
EXTT5=
EXTT6=
EXTT7=
EXTT8=
EXTT9=
PLAYORDER=
